<?xml version="1.0" encoding="UTF-8" standalone="no"?>
<svg width="100px" height="100px" viewBox="0 0 100 100" version="1.1" xmlns="http://www.w3.org/2000/svg" xmlns:xlink="http://www.w3.org/1999/xlink" xmlns:sketch="http://www.bohemiancoding.com/sketch/ns">
    <!-- Generator: Sketch 3.1.1 (8761) - http://www.bohemiancoding.com/sketch -->
    <title>php-tweak</title>
    <desc>Created with Sketch.</desc>
    <defs></defs>
    <g id="Page-1" stroke="none" stroke-width="1" fill="none" fill-rule="evenodd" sketch:type="MSPage">
        <circle id="Oval-1" fill="#A7ADD7" sketch:type="MSShapeGroup" cx="50" cy="50" r="50"></circle>
        <path d="M72.2113306,26.9722883 C72.7575,26.6466873 73.8498389,25.9744788 74.4065116,25.6488778 C74.8791582,25.9954853 75.8349547,26.6992036 76.3076014,27.0563144 C76.0450199,27.5814773 75.5093537,28.6318032 75.236269,29.1569661 C79.7736767,34.4085953 85.6660047,39.2611008 87.2625,46.3297938 C80.0887744,44.9643701 73.8498389,40.9311189 68.167576,36.5302536 C62.9474566,42.5276142 57.7378403,48.5249748 52.4967143,54.5118321 C59.2082965,61.7065642 67.1277534,67.956003 72.5579381,76.2325707 C72.5894479,79.6776395 68.8502878,78.1651703 67.4218447,76.5791783 C61.0358635,70.8338959 55.3325941,64.3848951 49.6293248,57.9779074 C44.115114,63.6181573 39.4726738,70.0566547 33.8219207,75.5708654 C32.4564971,77.1463542 30.7915472,78.948724 28.4127426,77.7030269 C27.9194392,76.2325709 28.1655062,75.8123548 31.8473081,71.6321435 C36.6893103,66.0339067 41.87792,60.7507677 46.9825036,55.3941058 C41.4157766,49.470268 36.2166636,43.1788162 30.135277,37.7591348 C27.0368157,40.6790407 24.043387,43.7144824 21.2285138,46.9179762 C19.0228295,44.838331 16.848655,42.7376793 14.7375,40.5740081 C17.0692234,37.5910827 19.9616534,34.3633469 22.4299191,31.4959574 C22.8920625,30.18305 23.2235401,27.9553911 24.9880876,27.6192868 C27.4716708,27.619287 31.962844,23.3906772 35.3869062,20.3342289 C37.5190677,22.6659523 39.7037455,24.9556627 41.8884232,27.2558763 C38.7584522,29.5455867 35.8175398,32.0663687 32.9501503,34.6711768 C38.6324131,40.4584722 44.1361206,46.4243231 50.0809649,51.9595403 C55.7947375,46.4558329 61.0358635,40.489982 66.2769895,34.5451377 C63.3675869,32.0348589 60.4686875,29.5140769 57.5592849,26.9932948 C59.6284269,24.5670421 61.6765623,22.1197829 63.7246977,19.6830269 C66.5290677,22.1407894 69.3649475,24.5565389 72.2113306,26.9722883 Z" id="Shape" fill="#FFFFFF" sketch:type="MSShapeGroup"></path>
    </g>
</svg>